<svg width="122" height="22" viewBox="0 0 122 22" fill="none" xmlns="http://www.w3.org/2000/svg">
<path d="M10.5 0L12.8574 7.60081H20.4861L14.3143 12.2984L16.6717 19.8992L10.5 15.2016L4.32825 19.8992L6.68565 12.2984L0.513906 7.60081H8.1426L10.5 0Z" fill="black"/>
<path d="M35.5 0L37.8574 7.60081H45.4861L39.3143 12.2984L41.6717 19.8992L35.5 15.2016L29.3283 19.8992L31.6857 12.2984L25.5139 7.60081H33.1426L35.5 0Z" fill="black"/>
<path d="M61 0L63.4697 7.60081H71.4616L64.996 12.2984L67.4656 19.8992L61 15.2016L54.5344 19.8992L57.004 12.2984L50.5384 7.60081H58.5303L61 0Z" fill="black"/>
<path d="M86.5 0L88.8574 7.60081H96.4861L90.3143 12.2984L92.6717 19.8992L86.5 15.2016L80.3283 19.8992L82.6857 12.2984L76.5139 7.60081H84.1426L86.5 0Z" fill="black"/>
<path d="M111.5 0L113.857 7.60081H121.486L115.314 12.2984L117.672 19.8992L111.5 15.2016L105.328 19.8992L107.686 12.2984L101.514 7.60081H109.143L111.5 0Z" fill="black"/>
</svg>
